<svg xmlns="http://www.w3.org/2000/svg" version="1.1" xmlns:xlink="http://www.w3.org/1999/xlink" xmlns:svgjs="http://svgjs.dev/svgjs" width="1000" height="1000" viewBox="0 0 1000 1000"><rect width="1000" height="1000" fill="#398378"></rect><g transform="matrix(0.7,0,0,0.7,149.57575757575756,282.1265587044535)"><svg viewBox="0 0 396 247" data-background-color="#398378" preserveAspectRatio="xMidYMid meet" height="623" width="1000" xmlns="http://www.w3.org/2000/svg" xmlns:xlink="http://www.w3.org/1999/xlink"><g id="tight-bounds" transform="matrix(1,0,0,1,0.2400000000000091,-0.09999999999999432)"><svg viewBox="0 0 395.52 247.2" height="247.2" width="395.52"><g><svg></svg></g><g><svg viewBox="0 0 395.52 247.2" height="247.2" width="395.52"><g transform="matrix(1,0,0,1,75.54432,92.54099405646966)"><svg viewBox="0 0 244.43135999999998 62.11801188706069" height="62.11801188706069" width="244.43135999999998"><g><svg viewBox="0 0 244.43135999999998 62.11801188706069" height="62.11801188706069" width="244.43135999999998"><g><svg viewBox="0 0 244.43135999999998 62.11801188706069" height="62.11801188706069" width="244.43135999999998"><g><svg viewBox="0 0 244.43135999999998 62.11801188706069" height="62.11801188706069" width="244.43135999999998"><g><svg viewBox="0 0 244.43135999999998 62.11801188706069" height="62.11801188706069" width="244.43135999999998"><g><svg viewBox="0 0 244.43135999999998 39.40007147960308" height="39.40007147960308" width="244.43135999999998"><g transform="matrix(1,0,0,1,0,0)"><svg width="244.43135999999998" viewBox="1.600000023841858 -36.150001525878906 226.72999572753906 36.55000305175781" height="39.40007147960308" data-palette-color="#31c48d"><path d="M2.1-34.5L13.8-34.5 14.3-30.35Q13.5-29.4 11.55-28.65L11.55-28.65 11.55-5.8Q13.55-5 14.3-4.15L14.3-4.15 13.8 0 2.1 0 1.6-4.15Q2.25-5 4.35-5.8L4.35-5.8 4.35-28.65Q2.3-29.4 1.6-30.35L1.6-30.35 2.1-34.5ZM16.6-31.65L17.1-35.5Q19.9-36.15 22.3-36.15 24.7-36.15 26.35-36L26.35-36 26.35-5.55Q28.3-4.8 29.1-3.85L29.1-3.85 28.6 0 17.1 0 16.6-3.85Q17.3-4.8 19.35-5.55L19.35-5.55 19.35-29.95Q17.6-30.55 16.6-31.65L16.6-31.65ZM42.72 0.4Q36.8 0.4 33.95-2.75 31.1-5.9 31.1-12.28 31.1-18.65 34.27-22.03 37.45-25.4 43.4-25.4 49.34-25.4 52.22-22.4 55.09-19.4 55.09-13.03 55.09-6.65 51.87-3.13 48.65 0.4 42.72 0.4ZM38.3-12.7L38.3-12.7Q38.3-4.7 43.09-4.7L43.09-4.7Q45.55-4.7 46.72-6.53 47.9-8.35 47.9-12.5L47.9-12.5Q47.9-20.3 43-20.3L43-20.3Q40.59-20.3 39.45-18.57 38.3-16.85 38.3-12.7ZM69.39-20.3L69.39-20.3Q64.79-20.3 64.79-12.4L64.79-12.4Q64.79-8.4 66.07-6.83 67.34-5.25 69.74-5.25L69.74-5.25Q73.54-5.25 76.44-5.95L76.44-5.95 77.94-2.1Q76.34-1.05 73.64-0.33 70.94 0.4 68.39 0.4L68.39 0.4Q57.59 0.4 57.59-12.1L57.59-12.1Q57.59-19.4 61.34-22.6L61.34-22.6Q64.69-25.4 69.49-25.4 74.29-25.4 77.49-23.6L77.49-23.6Q77.54-23.1 77.54-22.65L77.54-22.65Q77.54-19.8 76.24-17.25L76.24-17.25 71.84-17.25Q71.14-18.5 70.99-20.25L70.99-20.25Q70.39-20.3 69.39-20.3ZM81.14-21.3L81.14-21.3Q81.14-22.05 81.19-22.9L81.19-22.9Q85.84-25.4 91.19-25.4 96.54-25.4 98.87-23.38 101.19-21.35 101.19-16.65L101.19-16.65 101.19-6Q102.94-5.65 103.94-5.15L103.94-5.15 103.94-0.8Q101.39 0.4 96.64 0.4L96.64 0.4Q96.14-0.9 95.79-2.75L95.79-2.75Q93.64 0.4 87.99 0.4L87.99 0.4Q84.64 0.4 82.27-1.55 79.89-3.5 79.89-6.85 79.89-10.2 82.12-12.13 84.34-14.05 88.74-14.05L88.74-14.05 94.19-14.05 94.19-16.45Q94.19-20.35 90.04-20.35L90.04-20.35Q88.49-20.35 87.49-20.05L87.49-20.05Q87.39-17.95 86.89-16.8L86.89-16.8 81.99-16.8Q81.14-18.55 81.14-21.3ZM90.14-4.7L90.14-4.7Q92.69-4.7 94.19-6.2L94.19-6.2 94.19-10.3 90.69-10.3Q87.09-10.3 87.09-7.55L87.09-7.55Q87.09-6.3 87.87-5.5 88.64-4.7 90.14-4.7ZM105.14-31.65L105.64-35.5Q108.44-36.15 110.84-36.15 113.24-36.15 114.89-36L114.89-36 114.89-5.55Q116.84-4.8 117.64-3.85L117.64-3.85 117.14 0 105.64 0 105.14-3.85Q105.84-4.8 107.89-5.55L107.89-5.55 107.89-29.95Q106.14-30.55 105.14-31.65L105.14-31.65ZM129.69-20.9L129.69-20.9Q126.39-20.9 126.39-18.95L126.39-18.95Q126.39-17.1 129.84-16.2L129.84-16.2 133.78-15.15Q139.88-13.55 139.88-8.1L139.88-8.1Q139.88-4.35 137.26-1.98 134.63 0.4 128.91 0.4 123.19 0.4 119.98-1.2L119.98-1.2Q119.94-1.75 119.94-2.3L119.94-2.3Q119.94-5.05 121.04-7.25L121.04-7.25 125.19-7.25Q125.84-6.05 126.04-4.75L126.04-4.75Q127.04-4.45 128.88-4.45L128.88-4.45Q133.28-4.45 133.28-6.95L133.28-6.95Q133.28-7.75 132.69-8.28 132.09-8.8 130.34-9.3L130.34-9.3 126.39-10.45Q123.34-11.3 121.64-12.98 119.94-14.65 119.94-17.93 119.94-21.2 122.59-23.3 125.23-25.4 130.16-25.4 135.09-25.4 138.49-23.95L138.49-23.95Q138.53-23.45 138.53-22.95L138.53-22.95Q138.53-20.35 137.44-18.15L137.44-18.15 133.34-18.15Q132.69-19.3 132.49-20.55L132.49-20.55Q131.09-20.9 129.69-20.9ZM147.68-31.3L151.33-31.3 151.33-25 158.48-25 158.48-20.8 151.33-20.8 151.33-8.15Q151.33-6.55 151.78-5.83 152.23-5.1 153.93-5.1 155.63-5.1 157.58-5.85L157.58-5.85 159.08-1.95Q155.23 0 151.21 0 147.18 0 145.76-1.73 144.33-3.45 144.33-6.75L144.33-6.75 144.33-20.8 142.08-20.8 141.53-23.85Q142.33-24.8 144.83-25.75L144.83-25.75Q145.43-29.85 147.68-31.3L147.68-31.3ZM172.41 0.4Q166.48 0.4 163.63-2.75 160.78-5.9 160.78-12.28 160.78-18.65 163.96-22.03 167.13-25.4 173.08-25.4 179.03-25.4 181.91-22.4 184.78-19.4 184.78-13.03 184.78-6.65 181.56-3.13 178.33 0.4 172.41 0.4ZM167.98-12.7L167.98-12.7Q167.98-4.7 172.78-4.7L172.78-4.7Q175.23-4.7 176.41-6.53 177.58-8.35 177.58-12.5L177.58-12.5Q177.58-20.3 172.68-20.3L172.68-20.3Q170.28-20.3 169.13-18.57 167.98-16.85 167.98-12.7ZM202.33-18.85L202.33-18.85Q198.53-18.85 197.08-17.4L197.08-17.4 197.08-5.95Q201.13-5.2 202.63-3.85L202.63-3.85 202.13 0 187.83 0 187.33-3.85Q188.03-4.8 190.08-5.55L190.08-5.55 190.08-19.45Q188.33-20.05 187.33-21.15L187.33-21.15 187.83-25Q190.58-25.6 192.78-25.6 194.98-25.6 196.43-25.5L196.43-25.5 196.43-22.35Q197.58-23.7 199.38-24.58 201.18-25.45 202.65-25.45 204.13-25.45 204.68-25.2L204.68-25.2 204.53-18.7Q203.53-18.85 202.33-18.85ZM218.73 0.4L218.73 0.4Q212.73 0.4 209.7-2.8 206.68-6 206.68-12.1L206.68-12.1Q206.68-15.8 207.73-18.48 208.78-21.15 210.58-22.6L210.58-22.6Q214.08-25.4 218.73-25.4 223.38-25.4 225.85-23.03 228.33-20.65 228.33-14.5L228.33-14.5Q228.33-10.9 224.78-10.9L224.78-10.9 213.93-10.9Q214.13-7.75 215.55-6.45 216.98-5.15 220.08-5.15L220.08-5.15Q221.78-5.15 223.33-5.55 224.88-5.95 225.58-6.35L225.58-6.35 226.28-6.75 227.78-2.75Q227.48-2.4 226.9-1.88 226.33-1.35 224-0.48 221.68 0.4 218.73 0.4ZM213.98-15.05L221.88-15.35Q221.98-16.05 221.98-17.05 221.98-18.05 221.18-19.18 220.38-20.3 218.4-20.3 216.43-20.3 215.38-19.1 214.33-17.9 213.98-15.05L213.98-15.05Z" opacity="1" transform="matrix(1,0,0,1,0,0)" fill="#31c48d" class="undefined-text-0" data-fill-palette-color="primary" id="text-0"></path></svg></g></svg></g><g transform="matrix(1,0,0,1,0,48.70148275422186)"><svg viewBox="0 0 244.43135999999998 13.416529132838837" height="13.416529132838837" width="244.43135999999998"><g transform="matrix(1,0,0,1,0,0)"><svg width="244.43135999999998" viewBox="0.45000001788139343 -38.75 741.5 40.70000076293945" height="13.416529132838837" data-palette-color="#adbfb8"><path d="M27-3.95Q27.6-3.85 28.4-2.85 29.2-1.85 29.2-1L29.2-1Q29.2-0.45 28.35-0.15L28.35-0.15Q28.05-0.05 27.38 0.23 26.7 0.5 26.15 0.6 25.6 0.7 24.9 0.7L24.9 0.7Q23.85 0.7 23.3 0.45L23.3 0.45Q21.9-0.15 19.65-2.35 17.4-4.55 15.3-7.38 13.2-10.2 12.2-12.65L12.2-12.65 11.9-12.65Q10.5-12.65 9.85-12.7L9.85-12.7Q8.35-7.15 7.35-3L7.35-3Q6.95-1.25 6.13-0.3 5.3 0.65 3.45 0.65L3.45 0.65Q1.9 0.65 1.18 0.13 0.45-0.4 0.45-1.65L0.45-1.65Q0.45-2.2 0.6-2.7L0.6-2.7 6.65-26.05Q4.05-25.3 2.7-24L2.7-24Q2.15-24.6 1.83-25.58 1.5-26.55 1.5-27.5L1.5-27.5Q1.5-28.2 1.93-28.63 2.35-29.05 3.1-29.4L3.1-29.4Q3.35-29.55 4.93-30.3 6.5-31.05 7.95-31.45L7.95-31.45Q8.4-32.45 9.33-33.1 10.25-33.75 11.7-33.75L11.7-33.75Q12.55-33.75 13.1-33.43 13.65-33.1 13.85-32.6L13.85-32.6Q15.7-33.2 18.3-33.2L18.3-33.2Q21.5-33.2 23.88-31.93 26.25-30.65 27.5-28.65 28.75-26.65 28.75-24.6L28.75-24.6Q28.75-20.05 25.83-17.32 22.9-14.6 18.3-13.45L18.3-13.45Q19.35-11.65 21.1-9.4 22.85-7.15 24.43-5.58 26-4 26.5-4L26.5-4 27-3.95ZM13.3-27.4Q11.85-21.6 10.9-17.35L10.9-17.35Q11.5-17.3 12.6-17.3L12.6-17.3Q15-17.3 17.4-18.03 19.8-18.75 21.43-20.2 23.05-21.65 23.05-23.8L23.05-23.8Q23.05-25.75 21.45-26.93 19.85-28.1 17.15-28.1L17.15-28.1Q15.65-28.1 13.3-27.4L13.3-27.4ZM40.45 1.05Q35.55 1.05 33.3-0.9 31.05-2.85 31.05-6.1L31.05-6.1Q31.05-10.85 33.43-14.9 35.8-18.95 39.78-21.33 43.75-23.7 48.35-23.7L48.35-23.7Q51.15-23.7 53.05-22.13 54.95-20.55 54.95-17.5L54.95-17.5Q54.95-15.75 53.83-14.63 52.7-13.5 50.6-12.63 48.5-11.75 43.8-10.15L43.8-10.15Q39.55-8.75 36.9-7.8L36.9-7.8Q36.7-7.05 36.7-6.25L36.7-6.25Q36.7-4.85 37.88-4.1 39.05-3.35 41.2-3.35L41.2-3.35Q42.55-3.35 44.3-3.9 46.05-4.45 46.5-5.3L46.5-5.3Q48.2-8.4 49.6-8.4L49.6-8.4Q51.65-8.4 52.38-7.63 53.1-6.85 53.15-5.9L53.15-5.9Q52.55-4.3 50.8-2.68 49.05-1.05 46.35 0 43.65 1.05 40.45 1.05L40.45 1.05ZM38.3-12.4Q43.25-14 46.45-15.38 49.65-16.75 49.65-18.1L49.65-18.1Q49.65-18.7 49-19.07 48.35-19.45 47.6-19.45L47.6-19.45Q46.1-19.45 44.18-18.3 42.25-17.15 40.6-15.5 38.95-13.85 38.3-12.4L38.3-12.4ZM78.85-5.9Q78.25-4.3 76.5-2.68 74.75-1.05 72.05 0 69.35 1.05 66.15 1.05L66.15 1.05Q61.25 1.05 58.9-0.98 56.55-3 56.55-6.25L56.55-6.25Q56.55-10.95 58.95-14.98 61.35-19 65.4-21.35 69.45-23.7 74.05-23.7L74.05-23.7Q76.9-23.7 78.78-22.03 80.65-20.35 80.65-17.5L80.65-17.5Q80.65-16.4 79.75-15.68 78.85-14.95 77.35-14.95L77.35-14.95Q76.15-14.95 75.73-15.5 75.3-16.05 75.3-16.95L75.3-16.95 75.35-18.1Q75.35-18.7 74.7-19.07 74.05-19.45 73.3-19.45L73.3-19.45Q71.75-19.45 69.13-17.6 66.5-15.75 64.53-12.73 62.55-9.7 62.55-6.25L62.55-6.25Q62.55-4.85 63.65-4.1 64.75-3.35 66.9-3.35L66.9-3.35Q68.25-3.35 70-3.9 71.75-4.45 72.2-5.3L72.2-5.3Q73.9-8.4 75.3-8.4L75.3-8.4Q77.35-8.4 78.08-7.63 78.8-6.85 78.85-5.9L78.85-5.9ZM91.1 1.05Q86.2 1.05 83.95-0.9 81.7-2.85 81.7-6.1L81.7-6.1Q81.7-10.85 84.08-14.9 86.45-18.95 90.43-21.33 94.4-23.7 99-23.7L99-23.7Q101.8-23.7 103.7-22.13 105.6-20.55 105.6-17.5L105.6-17.5Q105.6-15.75 104.48-14.63 103.35-13.5 101.25-12.63 99.15-11.75 94.45-10.15L94.45-10.15Q90.2-8.75 87.55-7.8L87.55-7.8Q87.35-7.05 87.35-6.25L87.35-6.25Q87.35-4.85 88.53-4.1 89.7-3.35 91.85-3.35L91.85-3.35Q93.2-3.35 94.95-3.9 96.7-4.45 97.15-5.3L97.15-5.3Q98.85-8.4 100.25-8.4L100.25-8.4Q102.3-8.4 103.03-7.63 103.75-6.85 103.8-5.9L103.8-5.9Q103.2-4.3 101.45-2.68 99.7-1.05 97 0 94.3 1.05 91.1 1.05L91.1 1.05ZM88.95-12.4Q93.9-14 97.1-15.38 100.3-16.75 100.3-18.1L100.3-18.1Q100.3-18.7 99.65-19.07 99-19.45 98.25-19.45L98.25-19.45Q96.75-19.45 94.83-18.3 92.9-17.15 91.25-15.5 89.6-13.85 88.95-12.4L88.95-12.4ZM113.45-29.7Q113.45-31.25 114.43-32.45 115.4-33.65 117.15-33.65L117.15-33.65Q119-33.65 120.38-32.5 121.75-31.35 121.75-29.9L121.75-29.9Q121.75-28.45 120.35-27.4 118.95-26.35 117.1-26.35L117.1-26.35Q115.3-26.35 114.38-27.28 113.45-28.2 113.45-29.7L113.45-29.7ZM118.7-20.85Q116.05-10.05 114.65-4.6L114.65-4.6Q114.45-3.8 114.45-2.85L114.45-2.85 114.5-1.45Q114.5-0.6 113.98-0.25 113.45 0.1 111.75 0.15L111.75 0.15Q110.1 0.15 109.25-0.2 108.4-0.55 108.4-1.7L108.4-1.7Q108.4-2.25 109.68-7.55 110.95-12.85 113.15-21.35L113.15-21.35 112-22.85Q111.85-23 111.85-23.2L111.85-23.2Q111.85-23.7 112.95-24.03 114.05-24.35 116-24.35L116-24.35Q117.7-24.35 118.18-23.38 118.65-22.4 118.7-20.85L118.7-20.85ZM127.3 1.05Q125.6 0.7 124.9 0.35 124.2 0 124-0.6 123.8-1.2 123.75-2.65L123.75-2.65Q123.6-6.05 123.3-9.4L123.3-9.4Q123.25-10.2 123-14.15 122.75-18.1 122.75-21.65L122.75-21.65Q122.75-22.55 123.68-23.15 124.6-23.75 126-23.75L126-23.75Q128.7-23.75 128.7-21.3L128.7-21.3 128.75-7.6 128.75-4.1Q132.1-10.4 136.33-17.1 140.55-23.8 141.8-23.8L141.8-23.8Q143.4-23.8 144.5-23.18 145.6-22.55 145.65-21.75L145.65-21.75Q145.2-20.9 143.7-18.65L143.7-18.65Q143.1-17.8 141.55-15.35L141.55-15.35 139.8-12.6Q135.6-6.05 133.95-3.63 132.3-1.2 131.15-0.15L131.15-0.15Q130.6 0.35 129.55 0.7 128.5 1.05 127.3 1.05L127.3 1.05ZM153.85 1.05Q148.95 1.05 146.7-0.9 144.45-2.85 144.45-6.1L144.45-6.1Q144.45-10.85 146.83-14.9 149.2-18.95 153.18-21.33 157.15-23.7 161.75-23.7L161.75-23.7Q164.55-23.7 166.45-22.13 168.35-20.55 168.35-17.5L168.35-17.5Q168.35-15.75 167.23-14.63 166.1-13.5 164-12.63 161.9-11.75 157.2-10.15L157.2-10.15Q152.95-8.75 150.3-7.8L150.3-7.8Q150.1-7.05 150.1-6.25L150.1-6.25Q150.1-4.85 151.28-4.1 152.45-3.35 154.6-3.35L154.6-3.35Q155.95-3.35 157.7-3.9 159.45-4.45 159.9-5.3L159.9-5.3Q161.6-8.4 163-8.4L163-8.4Q165.05-8.4 165.78-7.63 166.5-6.85 166.55-5.9L166.55-5.9Q165.95-4.3 164.2-2.68 162.45-1.05 159.75 0 157.05 1.05 153.85 1.05L153.85 1.05ZM151.7-12.4Q156.65-14 159.85-15.38 163.05-16.75 163.05-18.1L163.05-18.1Q163.05-18.7 162.4-19.07 161.75-19.45 161-19.45L161-19.45Q159.5-19.45 157.58-18.3 155.65-17.15 154-15.5 152.35-13.85 151.7-12.4L151.7-12.4ZM208.2-33Q210.1-33 211.35-32.45 212.6-31.9 212.65-31.2L212.65-31.2Q212.25-30.6 209.95-27.95L209.95-27.95 207.85-25.6Q202.8-19.6 199.93-16.48 197.05-13.35 195.5-12.25L195.5-12.25Q195.2-12.05 194.6-11.8L194.6-11.8Q194.35-9.95 192.95-4.25L192.95-4.25 192.4-2.05Q192.05-0.6 191.38-0.1 190.7 0.4 188.7 0.4L188.7 0.4Q187.2 0.4 186.55-0.1 185.9-0.6 185.9-1.9L185.9-1.9Q185.9-2.45 186.05-2.95L186.05-2.95 188.05-10.95Q188.15-11.2 188.25-11.8L188.25-11.8Q187.4-12.1 187.18-12.63 186.95-13.15 186.85-14.4L186.85-14.4Q186.55-18.2 186.35-20.35L186.35-20.35Q186.3-21.05 186-24.53 185.7-28 185.7-31.15L185.7-31.15Q185.7-31.9 186.78-32.43 187.85-32.95 189.5-32.95L189.5-32.95Q191-32.95 191.7-32.43 192.4-31.9 192.4-30.8L192.4-30.8 192.45-18.05 192.45-14.9Q196.5-20.6 201.63-26.8 206.75-33 208.2-33L208.2-33ZM220.8 1.05Q216.4 1.05 213.95-1.95 211.5-4.95 211.5-9.6L211.5-9.6Q211.5-13.5 213.38-16.95 215.25-20.4 218.5-22.5 221.75-24.6 225.65-24.6L225.65-24.6Q229.5-24.6 231.98-22.08 234.45-19.55 234.45-14.65L234.45-14.65Q234.45-11.2 232.55-7.5 230.65-3.8 227.48-1.38 224.3 1.05 220.8 1.05L220.8 1.05ZM221.55-2.95Q223.15-2.95 224.78-4.95 226.4-6.95 227.45-10 228.5-13.05 228.5-15.95L228.5-15.95Q228.5-20.4 224.8-20.4L224.8-20.4Q222.75-20.4 221.05-18.45 219.35-16.5 218.35-13.63 217.35-10.75 217.35-8.25L217.35-8.25Q217.35-6.8 218-5.58 218.65-4.35 219.63-3.65 220.6-2.95 221.55-2.95L221.55-2.95ZM256.55-0.15Q256.35 0.7 255.65 1.03 254.95 1.35 253.8 1.35L253.8 1.35Q250.35 1.35 250.35-0.2L250.35-0.2 250.65-2.1Q249.25-1.05 247.35 0 245.45 1.05 244.2 1.05L244.2 1.05Q236.8 1.05 236.8-3.8L236.8-3.8Q236.8-12.05 241.75-21.7L241.75-21.7Q242.35-22.85 243.03-23.35 243.7-23.85 245.35-23.85L245.35-23.85Q247.1-23.85 247.98-23.38 248.85-22.9 248.85-22.25L248.85-22.25Q248.85-22.1 248.3-21.35L248.3-21.35Q247.75-20.7 247.35-20.05L247.35-20.05Q242.65-12.2 242.65-4.75L242.65-4.75Q242.65-4.1 243.15-3.6 243.65-3.1 244.05-3.1L244.05-3.1Q245.15-3.1 247.78-4.15 250.4-5.2 251.8-6.3L251.8-6.3 252.8-10.35Q254.6-17.6 255.05-19.25L255.05-19.25Q255.6-21.25 256.48-22.53 257.35-23.8 259.25-23.8L259.25-23.8Q261.9-23.8 261.9-22.2L261.9-22.2Q261.9-21.95 261.78-21.58 261.65-21.2 261.6-20.95L261.6-20.95 259.6-12.85Q257.2-3.2 256.55-0.15L256.55-0.15ZM269.2-1.9Q269.15-1.6 268.98-0.73 268.8 0.15 268.13 0.5 267.45 0.85 266 0.85L266 0.85Q264.35 0.85 263.6 0.5 262.85 0.15 262.85-1L262.85-1 265.25-10.55Q267.25-18.8 267.9-21.05L267.9-21.05 266.65-22.55Q266.5-22.7 266.5-22.9L266.5-22.9Q266.5-23.4 267.6-23.73 268.7-24.05 270.65-24.05L270.65-24.05Q272.4-24.05 273-23.08 273.6-22.1 273.75-20.55L273.75-20.55 273.4-19.25Q275-21.2 277.13-22.48 279.25-23.75 280.9-23.75L280.9-23.75Q283.05-23.75 284.25-23 285.45-22.25 285.45-21.05L285.45-21.05Q285.45-20 284.73-18.88 284-17.75 282.9-16.98 281.8-16.2 280.75-16.1L280.75-16.1Q279.75-16.1 279.4-16.35 279.05-16.6 279.05-17.1L279.05-17.1 279.35-18.75Q275.35-17.65 272.1-13.45L272.1-13.45 269.2-1.9ZM301.95-25.9Q300.95-26.25 300.43-26.98 299.9-27.7 299.9-28.7L299.9-28.7Q299.9-30.15 301.85-31L301.85-31Q309-32.45 316.25-33.05L316.25-33.05Q318.2-32.2 318.2-30.75L318.2-30.75Q318.2-29.85 317.3-29 316.4-28.15 315.25-27.8L315.25-27.8 312.5-27.45Q311.65-23.7 308.6-11.3L308.6-11.3 307.2-5.7 311.05-6.1Q313-5.25 313-3.8L313-3.8Q313-2.9 312.1-2.05 311.2-1.2 310.05-0.85L310.05-0.85 308.05-0.6Q300.7 0.2 296.75 1.05L296.75 1.05Q295.75 0.7 295.23-0.03 294.7-0.75 294.7-1.75L294.7-1.75Q294.7-3.2 296.65-4.05L296.65-4.05Q299.15-4.55 300.45-4.75L300.45-4.75 305.95-26.6Q303.9-26.3 301.95-25.9L301.95-25.9ZM327.2-18.1L324.05-5.5Q324.05-4.35 324.65-3.68 325.25-3 326.35-3L326.35-3Q327.85-3 328.83-3.88 329.8-4.75 330.9-6.35L330.9-6.35Q331.7-7.5 332.2-8 332.7-8.5 333.35-8.5L333.35-8.5Q334.65-8.5 335.2-8.18 335.75-7.85 335.75-6.85L335.75-6.85Q335.75-6.4 335.65-5.78 335.55-5.15 335.4-4.85L335.4-4.85Q334.2-2.3 331.48-0.45 328.75 1.4 325.3 1.4L325.3 1.4Q321.85 1.4 320.1-0.28 318.35-1.95 318.35-5.05L318.35-5.05Q318.35-5.5 318.8-7.4 319.25-9.3 319.95-11.95L319.95-11.95 321.35-17.65 318.3-17.4Q317.7-17.4 317.4-17.85 317.1-18.3 317.1-18.95L317.1-18.95Q317.1-20.2 318-21.45L318-21.45Q318.1-21.6 319-21.75 319.9-21.9 321.2-22.05L321.2-22.05 322.55-22.2 324.25-29.5Q324.75-30.8 325.78-31.53 326.8-32.25 327.7-32.25L327.7-32.25Q328.7-32.25 329.4-31.65 330.1-31.05 330.15-30.25L330.15-30.25 328.35-22.75Q330.3-23 331.98-23.18 333.65-23.35 334.6-23.35L334.6-23.35Q336.5-23.35 336.5-21.15L336.5-21.15Q336.5-20.3 335.78-19.63 335.05-18.95 334.2-18.8L334.2-18.8 327.2-18.1ZM347.65 1.05Q342.75 1.05 340.5-0.9 338.25-2.85 338.25-6.1L338.25-6.1Q338.25-10.85 340.63-14.9 343-18.95 346.98-21.33 350.95-23.7 355.55-23.7L355.55-23.7Q358.35-23.7 360.25-22.13 362.15-20.55 362.15-17.5L362.15-17.5Q362.15-15.75 361.03-14.63 359.9-13.5 357.8-12.63 355.7-11.75 351-10.15L351-10.15Q346.75-8.75 344.1-7.8L344.1-7.8Q343.9-7.05 343.9-6.25L343.9-6.25Q343.9-4.85 345.08-4.1 346.25-3.35 348.4-3.35L348.4-3.35Q349.75-3.35 351.5-3.9 353.25-4.45 353.7-5.3L353.7-5.3Q355.4-8.4 356.8-8.4L356.8-8.4Q358.85-8.4 359.58-7.63 360.3-6.85 360.35-5.9L360.35-5.9Q359.75-4.3 358-2.68 356.25-1.05 353.55 0 350.85 1.05 347.65 1.05L347.65 1.05ZM345.5-12.4Q350.45-14 353.65-15.38 356.85-16.75 356.85-18.1L356.85-18.1Q356.85-18.7 356.2-19.07 355.55-19.45 354.8-19.45L354.8-19.45Q353.3-19.45 351.38-18.3 349.45-17.15 347.8-15.5 346.15-13.85 345.5-12.4L345.5-12.4ZM367.05-22.85Q366.9-23 366.9-23.2L366.9-23.2Q366.9-23.7 368-24.03 369.1-24.35 371.05-24.35L371.05-24.35Q372.8-24.35 373.4-23.38 374-22.4 374.15-20.85L374.15-20.85Q374.05-20.45 373.95-19.75L373.95-19.75 373.7-18.55Q375.15-20.25 378-21.88 380.85-23.5 382.45-23.5L382.45-23.5Q384.95-23.5 385.93-22.63 386.9-21.75 387.05-19.3L387.05-19.3Q388.9-21.05 391.3-22.28 393.7-23.5 395.5-23.5L395.5-23.5Q397.4-23.5 399-22.73 400.6-21.95 400.6-20.25L400.6-20.25Q400.6-19.8 400.55-19.55L400.55-19.55Q400.4-18.75 399.98-17.32 399.55-15.9 399.35-15.25L399.35-15.25Q398.1-11.2 397.43-8.43 396.75-5.65 396.6-3L396.6-3 397.3-0.55Q396.7 0.6 395.63 1.28 394.55 1.95 392.5 1.95L392.5 1.95Q391.3 1.95 390.75 1.15 390.2 0.35 390.2-0.85L390.2-0.85Q390.2-1.1 390.25-1.4 390.3-1.7 390.3-1.95L390.3-1.95Q390.4-4.75 391.13-7.63 391.85-10.5 393-14.1L393-14.1Q394.05-17.25 394.05-17.95L394.05-17.95Q394.05-18.25 393.98-18.57 393.9-18.9 393.8-18.9L393.8-18.9Q392.65-18.9 390.03-17.8 387.4-16.7 386.5-15.6L386.5-15.6Q385.55-12.55 383.35-2.9L383.35-2.9 383.05-1.5Q382.8-0.2 382.58 0.3 382.35 0.8 381.7 1.05 381.05 1.3 379.6 1.3L379.6 1.3Q376.15 1.3 376.15-0.1L376.15-0.1Q376.55-1.2 378.35-8.55L378.35-8.55Q379.45-13.1 380.85-18.6L380.85-18.6Q380.55-18.45 379.75-18.15L379.75-18.15Q377.35-17.2 375.58-16.2 373.8-15.2 372.7-13.85L372.7-13.85 371.4-8.55Q371.1-7.35 370.85-6.33 370.6-5.3 370.4-4.6L370.4-4.6Q370.15-3.75 370.05-2.3L370.05-2.3Q369.95-1.3 369.78-0.85 369.6-0.4 368.93-0.13 368.25 0.15 366.8 0.15L366.8 0.15Q365.15 0.15 364.3-0.2 363.45-0.55 363.45-1.7L363.45-1.7Q363.45-2.25 364.73-7.55 366-12.85 368.2-21.35L368.2-21.35 367.05-22.85ZM433.55-15.05Q432-10.1 429.95-6.5 427.9-2.9 425.7-1 423.5 0.9 421.5 0.9L421.5 0.9Q416.9 0.9 416.9-8.55L416.9-8.55Q416.9-14.35 418.3-20.08 419.7-25.8 421.4-29.9L421.4-29.9Q421.9-31.2 422.7-31.98 423.5-32.75 424.95-32.75L424.95-32.75Q426.3-32.75 427.1-32.08 427.9-31.4 427.9-30.05L427.9-30.05 427.85-29.45Q427.85-29.35 427.25-27.8L427.25-27.8Q425.75-23.75 424.58-20.05 423.4-16.35 423.1-13L423.1-13Q422.95-11.3 422.95-9.65L422.95-9.65Q422.95-8 423.3-6.98 423.65-5.95 424.3-5.95L424.3-5.95Q425.75-5.95 427.83-10.13 429.9-14.3 431.8-20.13 433.7-25.95 434.6-30.35L434.6-30.35Q434.8-31.3 435.75-31.95 436.7-32.6 437.4-32.6L437.4-32.6Q438.65-32.6 439.23-31.98 439.8-31.35 439.8-30.05L439.8-30.05 439.75-29.35Q439.75-29.15 439.65-28.8 439.55-28.45 439.45-27.9L439.45-27.9Q437.05-16.5 436.55-10.9L436.55-10.9Q436.5-10.5 436.5-9.7L436.5-9.7Q436.5-8 436.98-6.98 437.45-5.95 438.2-5.95L438.2-5.95Q440.65-5.95 443.15-13.58 445.65-21.2 447.6-30.5L447.6-30.5Q447.8-31.4 448.48-31.83 449.15-32.25 450.1-32.25L450.1-32.25Q451.3-32.25 452.55-31.75 453.8-31.25 453.8-30.65L453.8-30.65 453-27.15Q451.15-18.95 449.28-13.15 447.4-7.35 444.38-3.23 441.35 0.9 437.05 0.9L437.05 0.9Q432.85 0.9 432.85-6.8L432.85-6.8Q432.85-10.35 433.75-15.05L433.75-15.05 433.55-15.05ZM459.95-29.7Q459.95-31.25 460.93-32.45 461.9-33.65 463.65-33.65L463.65-33.65Q465.5-33.65 466.88-32.5 468.25-31.35 468.25-29.9L468.25-29.9Q468.25-28.45 466.85-27.4 465.45-26.35 463.6-26.35L463.6-26.35Q461.8-26.35 460.88-27.28 459.95-28.2 459.95-29.7L459.95-29.7ZM465.2-20.85Q462.55-10.05 461.15-4.6L461.15-4.6Q460.95-3.8 460.95-2.85L460.95-2.85 461-1.45Q461-0.6 460.48-0.25 459.95 0.1 458.25 0.15L458.25 0.15Q456.6 0.15 455.75-0.2 454.9-0.55 454.9-1.7L454.9-1.7Q454.9-2.25 456.18-7.55 457.45-12.85 459.65-21.35L459.65-21.35 458.5-22.85Q458.35-23 458.35-23.2L458.35-23.2Q458.35-23.7 459.45-24.03 460.55-24.35 462.5-24.35L462.5-24.35Q464.2-24.35 464.68-23.38 465.15-22.4 465.2-20.85L465.2-20.85ZM478.5-18.1L475.35-5.5Q475.35-4.35 475.95-3.68 476.55-3 477.65-3L477.65-3Q479.15-3 480.13-3.88 481.1-4.75 482.2-6.35L482.2-6.35Q483-7.5 483.5-8 484-8.5 484.65-8.5L484.65-8.5Q485.95-8.5 486.5-8.18 487.05-7.85 487.05-6.85L487.05-6.85Q487.05-6.4 486.95-5.78 486.85-5.15 486.7-4.85L486.7-4.85Q485.5-2.3 482.78-0.45 480.05 1.4 476.6 1.4L476.6 1.4Q473.15 1.4 471.4-0.28 469.65-1.95 469.65-5.05L469.65-5.05Q469.65-5.5 470.1-7.4 470.55-9.3 471.25-11.95L471.25-11.95 472.65-17.65 469.6-17.4Q469-17.4 468.7-17.85 468.4-18.3 468.4-18.95L468.4-18.95Q468.4-20.2 469.3-21.45L469.3-21.45Q469.4-21.6 470.3-21.75 471.2-21.9 472.5-22.05L472.5-22.05 473.85-22.2 475.55-29.5Q476.05-30.8 477.08-31.53 478.1-32.25 479-32.25L479-32.25Q480-32.25 480.7-31.65 481.4-31.05 481.45-30.25L481.45-30.25 479.65-22.75Q481.6-23 483.28-23.18 484.95-23.35 485.9-23.35L485.9-23.35Q487.8-23.35 487.8-21.15L487.8-21.15Q487.8-20.3 487.08-19.63 486.35-18.95 485.5-18.8L485.5-18.8 478.5-18.1ZM497.5-16.5Q498.65-18.75 500.68-20.35 502.7-21.95 504.8-22.8 506.9-23.65 508.25-23.65L508.25-23.65Q510.85-23.65 512-22.68 513.15-21.7 513.15-19.6L513.15-19.6Q510.2-11.9 509.25-3L509.25-3 509.95-0.55Q509.35 0.6 508.35 1.28 507.35 1.95 505.3 1.95L505.3 1.95Q504.1 1.95 503.55 1.15 503 0.35 503-0.85L503-0.85Q503-4.2 503.98-8.22 504.95-12.25 506.25-16.45L506.25-16.45Q506.75-18.05 506.75-18.1L506.75-18.1Q506.75-18.8 505.95-18.8L505.95-18.8Q504.9-18.8 502.9-17.25 500.9-15.7 498.75-12.03 496.6-8.35 495.15-2.4L495.15-2.4Q495.1-2.15 494.9-1.35 494.7-0.55 494-0.2 493.3 0.15 491.85 0.15L491.85 0.15Q490.1 0.15 489.15-0.23 488.2-0.6 488.2-1.7L488.2-1.7Q494.75-27.45 496.3-33.9L496.3-33.9Q496.25-34.55 496.23-35.63 496.2-36.7 496.2-37.3L496.2-37.3Q496.35-38 497.28-38.38 498.2-38.75 499.15-38.75L499.15-38.75Q500.75-38.75 501.85-37.9 502.95-37.05 503.05-35.75L503.05-35.75 497.5-16.5ZM521.8-29.7Q521.8-31.25 522.78-32.45 523.75-33.65 525.5-33.65L525.5-33.65Q527.35-33.65 528.73-32.5 530.1-31.35 530.1-29.9L530.1-29.9Q530.1-28.45 528.7-27.4 527.3-26.35 525.45-26.35L525.45-26.35Q523.65-26.35 522.73-27.28 521.8-28.2 521.8-29.7L521.8-29.7ZM527.05-20.85Q524.4-10.05 523-4.6L523-4.6Q522.8-3.8 522.8-2.85L522.8-2.85 522.85-1.45Q522.85-0.6 522.33-0.25 521.8 0.1 520.1 0.15L520.1 0.15Q518.45 0.15 517.6-0.2 516.75-0.55 516.75-1.7L516.75-1.7Q516.75-2.25 518.03-7.55 519.3-12.85 521.5-21.35L521.5-21.35 520.35-22.85Q520.2-23 520.2-23.2L520.2-23.2Q520.2-23.7 521.3-24.03 522.4-24.35 524.35-24.35L524.35-24.35Q526.05-24.35 526.53-23.38 527-22.4 527.05-20.85L527.05-20.85ZM533-22.85Q532.85-23 532.85-23.2L532.85-23.2Q532.85-23.7 533.95-24.03 535.05-24.35 537-24.35L537-24.35Q538.8-24.35 539.65-23.43 540.5-22.5 540.65-21.2L540.65-21.2 539.75-17.95Q540.8-19.4 542.7-20.73 544.6-22.05 546.55-22.85 548.5-23.65 549.75-23.65L549.75-23.65Q552.4-23.65 553.6-22.68 554.8-21.7 554.8-19.6L554.8-19.6Q551.85-11.9 550.9-3L550.9-3 551.6-0.55Q551 0.6 549.93 1.28 548.85 1.95 546.8 1.95L546.8 1.95Q545.6 1.95 545.05 1.15 544.5 0.35 544.5-0.85L544.5-0.85Q544.5-4.2 545.48-8.22 546.45-12.25 547.75-16.45L547.75-16.45Q548.25-18.05 548.25-18.1L548.25-18.1Q548.25-18.8 547.45-18.8L547.45-18.8Q546.35-18.8 544.13-17.25 541.9-15.7 539.55-12.03 537.2-8.35 535.75-2.4L535.75-2.4Q535.65-2.1 535.5-1.3 535.35-0.5 534.7-0.18 534.05 0.15 532.6 0.15L532.6 0.15Q530.95 0.15 530.18-0.2 529.4-0.55 529.4-1.7L529.4-1.7Q529.55-2.4 529.85-3.4L529.85-3.4Q532.75-15.05 534.3-21.35L534.3-21.35 533-22.85ZM589.65-25.6Q589.65-26.8 588.63-27.58 587.6-28.35 586-28.35L586-28.35Q584.35-28.35 583.08-27.95 581.8-27.55 580.65-26.6L580.65-26.6Q580-26.1 579.75-25.6 579.5-25.1 579.3-24.35L579.3-24.35Q579.05-23.55 578.68-23.2 578.3-22.85 577.2-22.85L577.2-22.85Q575.5-22.85 574.48-23.6 573.45-24.35 573.45-25.7L573.45-25.7Q573.45-27.35 575.25-29.1 577.05-30.85 580.05-32 583.05-33.15 586.45-33.15L586.45-33.15Q589.35-33.15 591.63-32.23 593.9-31.3 595.18-29.7 596.45-28.1 596.45-26.1L596.45-26.1Q596.45-23.8 594.68-21.28 592.9-18.75 590.38-16.4 587.85-14.05 584-10.9L584-10.9Q583.35-10.35 581.75-9 580.15-7.65 579.05-6.63 577.95-5.6 577.25-4.75L577.25-4.75Q579.55-5.3 583.85-6.1 588.15-6.9 590.75-7.15L590.75-7.15Q591.1-7.2 591.7-7.2L591.7-7.2Q592.65-7.2 593.3-6.73 593.95-6.25 593.95-5.8L593.95-5.8Q593.95-4.45 593-2.98 592.05-1.5 589.75-1.35L589.75-1.35Q586.45-1.15 581.15-0.4L581.15-0.4Q578.6 0 577.05 0.18 575.5 0.35 573.85 0.35L573.85 0.35Q571.85 0.35 570.75-0.4 569.65-1.15 569.65-2.65L569.65-2.65Q569.65-4.3 570.65-5.78 571.65-7.25 573.5-9L573.5-9Q576.35-11.65 581.7-16.2L581.7-16.2Q586.15-19.95 587.9-21.85 589.65-23.75 589.65-25.6L589.65-25.6ZM634.9-14.6Q625.05-13.4 620.95-12.5L620.95-12.5 618.25-1.8Q617.9-0.35 617.23 0.15 616.55 0.65 614.55 0.65L614.55 0.65Q613 0.65 612.28 0.13 611.55-0.4 611.55-1.65L611.55-1.65Q611.55-2.2 611.7-2.7L611.7-2.7 618.55-29.75Q619.1-31.95 619.73-32.68 620.35-33.4 622-33.4L622-33.4Q623.35-33.4 624.48-33.1 625.6-32.8 625.65-32.2L625.65-32.2Q625.65-32.1 625-29.5L625-29.5Q624-25.65 622.15-17.8L622.15-17.8Q629.55-19.3 636.2-19.85L636.2-19.85 638.5-29.15Q639-31.15 639.88-32.13 640.75-33.1 642.25-33.4L642.25-33.4Q644.1-33.05 644.68-32.83 645.25-32.6 645.45-32.15L645.45-32.15Q644.8-30.3 644.48-28.73 644.15-27.15 644.1-26.85L644.1-26.85Q643.45-23.35 642.55-19.7L642.55-19.7Q644.5-18.85 644.5-17.4L644.5-17.4Q644.5-15.95 641.4-14.95L641.4-14.95Q640.85-12.95 639.35-6.25L639.35-6.25Q639-4.4 638.35-1.65L638.35-1.65Q637.65 1.1 636.15 1.1L636.15 1.1Q631.55 1.1 631.55-1.05L631.55-1.05Q631.55-1.5 634.9-14.6L634.9-14.6ZM656.65 1.05Q652.25 1.05 649.8-1.95 647.35-4.95 647.35-9.6L647.35-9.6Q647.35-13.5 649.23-16.95 651.1-20.4 654.35-22.5 657.6-24.6 661.5-24.6L661.5-24.6Q665.35-24.6 667.83-22.08 670.3-19.55 670.3-14.65L670.3-14.65Q670.3-11.2 668.4-7.5 666.5-3.8 663.33-1.38 660.15 1.05 656.65 1.05L656.65 1.05ZM657.4-2.95Q659-2.95 660.63-4.95 662.25-6.95 663.3-10 664.35-13.05 664.35-15.95L664.35-15.95Q664.35-20.4 660.65-20.4L660.65-20.4Q658.6-20.4 656.9-18.45 655.2-16.5 654.2-13.63 653.2-10.75 653.2-8.25L653.2-8.25Q653.2-6.8 653.85-5.58 654.5-4.35 655.48-3.65 656.45-2.95 657.4-2.95L657.4-2.95ZM692.4-0.15Q692.2 0.7 691.5 1.03 690.8 1.35 689.65 1.35L689.65 1.35Q686.2 1.35 686.2-0.2L686.2-0.2 686.5-2.1Q685.1-1.05 683.2 0 681.3 1.05 680.05 1.05L680.05 1.05Q672.65 1.05 672.65-3.8L672.65-3.8Q672.65-12.05 677.6-21.7L677.6-21.7Q678.2-22.85 678.88-23.35 679.55-23.85 681.2-23.85L681.2-23.85Q682.95-23.85 683.83-23.38 684.7-22.9 684.7-22.25L684.7-22.25Q684.7-22.1 684.15-21.35L684.15-21.35Q683.6-20.7 683.2-20.05L683.2-20.05Q678.5-12.2 678.5-4.75L678.5-4.75Q678.5-4.1 679-3.6 679.5-3.1 679.9-3.1L679.9-3.1Q681-3.1 683.63-4.15 686.25-5.2 687.65-6.3L687.65-6.3 688.65-10.35Q690.45-17.6 690.9-19.25L690.9-19.25Q691.45-21.25 692.33-22.53 693.2-23.8 695.1-23.8L695.1-23.8Q697.75-23.8 697.75-22.2L697.75-22.2Q697.75-21.95 697.63-21.58 697.5-21.2 697.45-20.95L697.45-20.95 695.45-12.85Q693.05-3.2 692.4-0.15L692.4-0.15ZM705.05-1.9Q705-1.6 704.83-0.73 704.65 0.15 703.98 0.5 703.3 0.85 701.85 0.85L701.85 0.85Q700.2 0.85 699.45 0.5 698.7 0.15 698.7-1L698.7-1 701.1-10.55Q703.1-18.8 703.75-21.05L703.75-21.05 702.5-22.55Q702.35-22.7 702.35-22.9L702.35-22.9Q702.35-23.4 703.45-23.73 704.55-24.05 706.5-24.05L706.5-24.05Q708.25-24.05 708.85-23.08 709.45-22.1 709.6-20.55L709.6-20.55 709.25-19.25Q710.85-21.2 712.98-22.48 715.1-23.75 716.75-23.75L716.75-23.75Q718.9-23.75 720.1-23 721.3-22.25 721.3-21.05L721.3-21.05Q721.3-20 720.58-18.88 719.85-17.75 718.75-16.98 717.65-16.2 716.6-16.1L716.6-16.1Q715.6-16.1 715.25-16.35 714.9-16.6 714.9-17.1L714.9-17.1 715.2-18.75Q711.2-17.65 707.95-13.45L707.95-13.45 705.05-1.9ZM736.25-19.35Q735.65-19.65 734.75-19.65L734.75-19.65Q732.5-19.65 730.25-18.75 728-17.85 728-16.45L728-16.45Q728-15.45 728.9-14.85 729.8-14.25 731.75-13.5L731.75-13.5Q733.85-12.65 735.15-11.9 736.45-11.15 737.43-9.73 738.4-8.3 738.4-6.1L738.4-6.1Q738.4-2.5 735.43-0.58 732.45 1.35 727.45 1.35L727.45 1.35Q725 1.35 722.9 0.6 720.8-0.15 719.58-1.33 718.35-2.5 718.25-3.65L718.25-3.65Q718.25-4.85 719.3-5.63 720.35-6.4 722.25-6.65L722.25-6.65Q722.3-5.65 723.3-4.78 724.3-3.9 725.68-3.38 727.05-2.85 728.05-2.85L728.05-2.85Q729.75-2.85 731.15-3.78 732.55-4.7 732.55-5.95L732.55-5.95Q732.55-8.25 728.1-9.6L728.1-9.6Q725.25-10.45 723.73-12.3 722.2-14.15 722.2-16.2L722.2-16.2Q722.2-20.25 725.88-22.03 729.55-23.8 735.25-23.8L735.25-23.8Q738.45-23.8 740.2-23.05 741.95-22.3 741.95-20.45L741.95-20.45Q741.95-19.2 741.03-18.25 740.1-17.3 738.4-17.3L738.4-17.3Q736.9-17.3 736.48-17.53 736.05-17.75 736-18.3L736-18.3Q736-18.8 736.25-19.35L736.25-19.35Z" opacity="1" transform="matrix(1,0,0,1,0,0)" fill="#adbfb8" class="undefined-text-1" data-fill-palette-color="secondary" id="text-1"></path></svg></g></svg></g></svg></g></svg></g><g></g></svg></g></svg></g></svg></g><g><path d="M119.271 83.24A122.216 122.216 0 0 1 276.249 83.24L272.696 83.24A118.663 118.663 0 0 0 122.824 83.24L119.271 83.24M119.271 163.96A122.216 122.216 0 0 0 276.249 163.96L272.696 163.96A118.663 118.663 0 0 1 122.824 163.96L119.271 163.96" fill="#31c48d" stroke="transparent" data-fill-palette-color="tertiary"></path></g></svg></g><defs></defs></svg><rect width="395.52" height="247.2" fill="none" stroke="none" visibility="hidden"></rect></g></svg></g></svg>